<?xml version="1.0" ?><svg id="Layer_1" style="enable-background:new 0 0 100 100;" version="1.1" viewBox="0 0 100 100" xml:space="preserve" xmlns="http://www.w3.org/2000/svg" xmlns:xlink="http://www.w3.org/1999/xlink"><circle cx="50" cy="50" r="6.5"/><path d="M81.6,18.4C64.1,1,35.8,1,18.3,18.4s-17.5,45.8,0,63.2s45.8,17.5,63.2,0S99,35.9,81.6,18.4z M40.8,40.9  c5.1-5.1,13.3-5.1,18.4,0s5.1,13.3,0,18.4s-13.3,5.1-18.4,0S35.7,45.9,40.8,40.9z M76.8,76.9c-14.8,14.8-38.9,14.8-53.7,0l13.4-13.4  c7.4,7.4,19.5,7.4,26.9,0s7.4-19.5,0-26.9l13.4-13.4C91.7,38,91.7,62.1,76.8,76.9z"/></svg>